<svg xmlns="http://www.w3.org/2000/svg" viewBox="0 0 165.52 41.25">
  <title>apple-pay</title>
  <path d="M150.7,0H14.82C14.24,0,13.67,0,13.1,0,12.69,0,12.28,0,11.87,0,10.93,0,10,.05,9.07.15A14.55,14.55,0,0,0,5.23,1.08,14.3,14.3,0,0,0,2.13,3a13.11,13.11,0,0,0-1.57,1.7A13.6,13.6,0,0,0,.56,4.66,13.48,13.48,0,0,0-1.32,8.2a13.19,13.19,0,0,0-.93,3.64C-2.38,12.6-2.4,13.37-2.4,14.14c0,.28,0,.57,0,.85V26.26c0,.28,0,.56,0,.84,0,.77,0,1.54.15,2.3a13.24,13.24,0,0,0,.93,3.64A13.55,13.55,0,0,0,.56,36.59a13.29,13.29,0,0,0,3.56,3.56,13.82,13.82,0,0,0,3.1,1.64,14.08,14.08,0,0,0,3.85.93c.93.1,1.86.15,2.8.15.41,0,.82,0,1.23,0,.57,0,1.14,0,1.72,0H150.7c.57,0,1.15,0,1.72,0,.41,0,.82,0,1.23,0,1,0,1.87,0,2.8-.15a14.43,14.43,0,0,0,3.85-.93,14.06,14.06,0,0,0,3.1-1.64,13.88,13.88,0,0,0,3.56-3.56,14.11,14.11,0,0,0,1.89-3.55,13.94,13.94,0,0,0,.93-3.64c.1-.76.13-1.53.15-2.3,0-.28,0-.56,0-.84,0-.57,0-1.15,0-1.72V16.71c0-.57,0-1.15,0-1.72,0-.28,0-.57,0-.85,0-.77-.05-1.54-.15-2.3A13.91,13.91,0,0,0,168.33,8.2a14.12,14.12,0,0,0-1.89-3.54c-.14-.21-.29-.42-.44-.62A13.56,13.56,0,0,0,164.43,3a14.45,14.45,0,0,0-3.1-1.9,14.26,14.26,0,0,0-3.85-.93c-.93-.1-1.85-.15-2.8-.15-.41,0-.82,0-1.23,0-.57,0-1.15,0-1.72,0l0,0Z" transform="translate(-2.4)" style="fill:#A6A6A6"/>
  <path d="M14.82.83c-.56,0-1.12,0-1.68,0-.4,0-.81,0-1.21,0-.87,0-1.76.05-2.63.14a13.32,13.32,0,0,0-3.43.83,13.12,13.12,0,0,0-2.91,1.7A12.35,12.35,0,0,0,0,6.23a13.33,13.33,0,0,0-1.68,3.14,12.39,12.39,0,0,0-.83,3.26c-.1.71-.12,1.44-.14,2.17,0,.27,0,.55,0,.83V25.61c0,.28,0,.57,0,.85,0,.73,0,1.46.14,2.17A12.38,12.38,0,0,0-.86,32a13.41,13.41,0,0,0,1.76,3.13A13,13,0,0,0,5.86,39a13.67,13.67,0,0,0,3.44.81c.93.1,1.88.14,2.82.14.4,0,.8,0,1.2,0s.81,0,1.21,0H150.73c.4,0,.8,0,1.21,0s.8,0,1.2,0c.94,0,1.89,0,2.82-.14A13.61,13.61,0,0,0,159.4,39a13.13,13.13,0,0,0,5-3.86,13.37,13.37,0,0,0,1.69-3.13,12.6,12.6,0,0,0,.82-3.32c.08-.67.12-1.42.14-2.17s0-.66,0-1l0-1.54V16.71c0-.51,0-1,0-1.53s0-.68,0-1c0-.74-.06-1.49-.14-2.16a12.61,12.61,0,0,0-.82-3.33,13.34,13.34,0,0,0-1.69-3.14,13.5,13.5,0,0,0-2.09-2.18,13.29,13.29,0,0,0-2.87-1.78,13.12,13.12,0,0,0-3.43-.83c-.87-.09-1.76-.14-2.64-.14-.4,0-.8,0-1.2,0s-.81,0-1.21,0Z" transform="translate(-2.4)" style="fill:#fff"/>
  <path d="M42.48,27.1a5.84,5.84,0,0,1-2.8-4.9,5.79,5.79,0,0,1,3.46-5.29A6,6,0,0,0,39.45,12a5.93,5.93,0,0,0-4.56,2.46,5.61,5.61,0,0,0-1.45-1.92A5.74,5.74,0,0,0,29.27,11a7.49,7.49,0,0,0-5.12,6.57A13.57,13.57,0,0,0,26.4,25.7c1.25,1.83,2.62,2.87,2.62,2.87a5.72,5.72,0,0,0,.06-5.44,5.46,5.46,0,0,1,4.43,2.79,5.35,5.35,0,0,1-.47,5.68s3.12-1.73,4.6-5.14a5.35,5.35,0,0,1,.42-5.56,5.55,5.55,0,0,1,4.42,2.86Z" transform="translate(-2.4)" style="fill:#000"/>
  <path d="M67.35,21.77H58.11L56.49,27h-4l8.11-22.65h4.17L72.9,27H68.86Zm-1.11-3.23-3.51-10.26h-.09L59.13,18.54Z" transform="translate(-2.4)" style="fill:#000"/>
  <path d="M90.19,21.28c0,3.62-1.9,5.95-4.78,5.95A3.87,3.87,0,0,1,81.85,25h-.07v5.79H78.17V15.47h3.51v2.08h.07A4,4,0,0,1,85.37,15.4C88.26,15.4,90.19,17.75,90.19,21.28Zm-3.71,0c0-2.37-1.19-3.93-3-3.93S80.41,19,80.41,21.28s1.19,3.94,3.05,3.94S86.48,23.68,86.48,21.28Z" transform="translate(-2.4)" style="fill:#000"/>
  <path d="M105.54,21.28c0,3.62-1.9,5.95-4.78,5.95A3.87,3.87,0,0,1,97.2,25h-.07v5.79H93.52V15.47H97v2.08h.07a4,4,0,0,1,3.62-2.15C103.61,15.4,105.54,17.75,105.54,21.28Zm-3.71,0c0-2.37-1.19-3.93-3-3.93s-3.05,1.6-3.05,3.93,1.19,3.94,3.05,3.94S101.83,23.68,101.83,21.28Z" transform="translate(-2.4)" style="fill:#000"/>
  <path d="M112.62,23.31c.24,1.59,1.73,2.64,3.84,2.64s3.69-1.05,3.69-2.5c0-1.25-.87-2-2.93-2.51l-2.06-.5c-2.91-.71-4.27-2.08-4.27-4.3,0-2.75,2.39-4.64,5.79-4.64s5.69,1.89,5.77,4.64h-3.62c-.2-1.59-1.46-2.55-3.17-2.55s-3,.94-3,2.33c0,1.1.82,1.75,2.84,2.24l1.75.43c3.26.77,4.61,2.08,4.61,4.41,0,3-2.37,4.85-6.14,4.85-3.53,0-5.91-1.82-6.05-4.71Z" transform="translate(-2.4)" style="fill:#000"/>
  <path d="M133.76,12.66v2.81h2.26v2.75h-2.26v6.56c0,1,.46,1.5,1.46,1.5a7.74,7.74,0,0,0,.8,0V27a6.69,6.69,0,0,1-1.35.11c-2.4,0-3.33-.91-3.33-3.21V18.22h-1.73V15.47h1.73V12.66Z" transform="translate(-2.4)" style="fill:#000"/>
  <path d="M137.12,21.28c0-3.66,2.15-5.95,5.51-5.95s5.5,2.29,5.5,5.95-2.13,5.95-5.5,5.95S137.12,25,137.12,21.28Zm7.4,0c0-2.51-1.15-4-1.89-4s-1.9,1.46-1.9,4,1.15,4,1.9,4S144.52,23.79,144.52,21.28Z" transform="translate(-2.4)" style="fill:#000"/>
  <path d="M149.83,15.47h3.51V17.6h.07a3.09,3.09,0,0,1,3.11-2.2,3.58,3.58,0,0,1,.8.09v3.33a3.65,3.65,0,0,0-1.05-.15,2.67,2.67,0,0,0-2.75,3V27h-3.61Z" transform="translate(-2.4)" style="fill:#000"/>
</svg>