<svg xmlns="http://www.w3.org/2000/svg" viewBox="0 0 566.93 137.35">
  <defs>
    <style>
      .a {
        fill: #253b80;
      }
      .b {
        fill: #179bd7;
      }
      .c {
        fill: #222d65;
      }
    </style>
  </defs>
  <title>paypal</title>
  <path class="a" d="M186.16,37h-21.3a3,3,0,0,0-3,2.57L152.53,97.7a1.81,1.81,0,0,0,.35,1.42,1.83,1.83,0,0,0,1.34.59h10.06a3,3,0,0,0,3-2.57l2.46-15.66a3,3,0,0,1,3-2.57h6.74c14.33,0,22.6-6.93,24.75-20.67.95-6,.05-10.7-2.72-14-3-3.54-8.42-5.41-15.36-5.41Zm2.52,20.38c-1.19,7.79-7.14,7.79-12.9,7.79H172.3l2.26-14.36a1.82,1.82,0,0,1,1.79-1.54h1.33c3.93,0,7.63,0,9.54,2.23a6.61,6.61,0,0,1,1.46,5.89Z"/>
  <path class="a" d="M232.34,57.21h-10.1a1.81,1.81,0,0,0-1.79,1.54l-.26,1.67-.41-.6c-2.7-3.92-8.72-5.23-14.73-5.23-13.79,0-25.55,10.44-27.84,25.08-1.19,7.31.5,14.29,4.66,19.15,3.81,4.46,9.24,6.31,15.72,6.31,11.1,0,17.26-7.14,17.26-7.14l-.56,3.46a1.83,1.83,0,0,0,.35,1.42,1.83,1.83,0,0,0,1.34.59h9.09a3,3,0,0,0,3-2.57l5.62-35.58A1.81,1.81,0,0,0,233,63.22a1.83,1.83,0,0,0-1.34-.59C232.84,57.22,232.34,57.21,232.34,57.21Zm-14.1,35.52c-1.2,7.12-6.85,11.88-14.09,11.88-3.62,0-6.52-1.17-8.38-3.38a11.41,11.41,0,0,1-2.17-9.39c1.12-7,6.85-11.89,13.94-11.89,3.54,0,6.41,1.17,8.32,3.39a11.48,11.48,0,0,1,2.38,9.39Z"/>
  <path class="a" d="M299.71,57.21h-10.15a3,3,0,0,0-2.51,1.33L270.24,84.25,263.8,59.4a3,3,0,0,0-2.94-2.19H250.8a1.82,1.82,0,0,0-1.64,2.62l12.27,36-11.55,16.3a1.83,1.83,0,0,0,1.5,2.9h10.14a3,3,0,0,0,2.47-1.29l37.1-53.55a1.83,1.83,0,0,0-1.38-3Z"/>
  <path class="b" d="M350.52,37h-21.3a3,3,0,0,0-3,2.57L316.9,97.7a1.81,1.81,0,0,0,.35,1.42,1.83,1.83,0,0,0,1.34.59h11.05a2.14,2.14,0,0,0,2.12-1.83l2.63-16.4a3,3,0,0,1,3-2.57h6.74c14.33,0,22.6-6.93,24.75-20.67.95-6,.05-10.7-2.72-14-3-3.54-8.42-5.41-15.36-5.41Zm2.52,20.38c-1.19,7.79-7.14,7.79-12.9,7.79h-3.47l2.26-14.36a1.82,1.82,0,0,1,1.79-1.54h1.33c3.93,0,7.63,0,9.54,2.23a6.61,6.61,0,0,1,1.46,5.89Z"/>
  <path class="b" d="M396.71,57.21h-10.1a1.82,1.82,0,0,0-1.79,1.54l-.26,1.67-.41-.6c-2.7-3.92-8.72-5.23-14.73-5.23-13.79,0-25.55,10.44-27.84,25.08-1.19,7.31.5,14.29,4.66,19.15,3.81,4.46,9.24,6.31,15.72,6.31,11.1,0,17.26-7.14,17.26-7.14l-.56,3.46a1.81,1.81,0,0,0,.35,1.42,1.83,1.83,0,0,0,1.34.59h9.09a3,3,0,0,0,3-2.57l5.62-35.58a1.81,1.81,0,0,0-.35-1.42,1.83,1.83,0,0,0-1.34-.59C397.21,57.22,396.71,57.21,396.71,57.21Zm-14.1,35.52c-1.2,7.12-6.85,11.88-14.09,11.88-3.62,0-6.52-1.17-8.38-3.38a11.41,11.41,0,0,1-2.17-9.39c1.12-7,6.85-11.89,13.94-11.89,3.54,0,6.41,1.17,8.32,3.39a11.48,11.48,0,0,1,2.38,9.39Z"/>
  <path class="b" d="M430.17,39.11,421.1,97.7a1.81,1.81,0,0,0,.35,1.42,1.83,1.83,0,0,0,1.34.59h8.61a3,3,0,0,0,3-2.57l9-57a1.83,1.83,0,0,0-1.7-2.13H432.2a1.82,1.82,0,0,0-2,1.54Z"/>
  <path class="c" d="M118.72,27.86c-1.73-2-4.4-3.59-8.27-3.59H81c-1.91,0-3.55,1.39-3.85,3.28L65.55,86a2,2,0,0,0,.39,1.54,2,2,0,0,0,1.46.64h16.67l4.2-26.7-.13.85a3.84,3.84,0,0,1,3.8-3.28H99c15.6,0,27.77-6.36,31.33-24.73.1-.55.25-1.47.25-1.47a19,19,0,0,0-.31-8.22,14.45,14.45,0,0,0-5.7-7.28c-1.49-1.07-3.21-1.94-5.34-2.63Z"/>
  <path class="b" d="M126.32,34.77a27.43,27.43,0,0,0-4.11-1.21,44.72,44.72,0,0,0-7.26-.52H92.47a3.87,3.87,0,0,0-3.82,3.28L83.82,65c.08,0,.22,0,.4,0H95.06a4.58,4.58,0,0,0,4.52-3.87l.19-1,.3-1.93,2.56-16.25a4.58,4.58,0,0,1,4.52-3.87h2.86c13.16,0,23.42-5.37,26.44-20.89a16.8,16.8,0,0,0-8.55-11.24A16.18,16.18,0,0,0,126.32,34.77Z"/>
  <path class="a" d="M115,33a17.34,17.34,0,0,1,5.34,1c.93.31,1.8.67,2.62,1.1s1.58.91,2.27,1.44a14.22,14.22,0,0,0-8.55-11.24,17.17,17.17,0,0,0-1.58-5.34,15.66,15.66,0,0,0-5.7-7.28c-3.28-2.36-7.53-3.59-13-3.59H67c-1.91,0-3.55,1.39-3.85,3.28L51.55,72.05a2.28,2.28,0,0,0,2.25,2.64h17L75,48c.08,0,.22,0,.4,0h22.41A17.34,17.34,0,0,1,115,33Z"/>
</svg> 