<svg xmlns="http://www.w3.org/2000/svg" viewBox="0 0 1000 324.68">
  <path d="M651.17,0H348.83c-192.77,0-349,156.21-349,349V651c0,192.77,156.23,349,349,349H651.17c192.77,0,349-156.23,349-349V349c0-192.77-156.25-349-349-349Z" style="fill:#fff"/>
  <g>
    <polygon points="423.89 179.01 366.4 323.03 328.61 323.03 300.47 201.69 294.9 179.56 294.39 176.82 294.21 179.01 276.54 323.03 234.72 323.03 261.5 1.65 303.32 1.65 335.92 138.9 340.38 162.68 344.78 138.9 376.45 1.65 418.26 1.65 391.48 323.03 349.67 323.03 367.57 179.01 367.66 176.82 367.48 179.56 362.09 201.69 335.87 323.03 316.29 323.03 372.75 179.01 423.89 179.01" style="fill:#1434cb"/>
    <path d="M533.9,323.03h-36.38l1.66-22.45h-41.11l-12.5,22.45h-41.11l86.94-150.67c3.8-6.59,8.27-12.63,13.31-18.04,5.04-5.41,11.06-10.21,18.04-14.38,6.98-4.17,15.15-7.87,24.47-11.08,9.33-3.21,20.22-5.93,32.65-8.18l-45.96,219.9Zm-60.83-179.01l-27.56,50.9h27.56l12.5-50.9h-12.5Z" style="fill:#1434cb"/>
    <path d="M601.28,1.65l-13.31,66.23c12.23-5.77,24.38-10.17,36.38-13.31,12-3.13,23.59-4.72,34.7-4.72,7.77,0,14.95,.75,21.51,2.22,6.55,1.48,12.27,3.8,17.11,6.94,4.84,3.15,8.64,7.24,11.37,12.27,2.73,5.04,4.1,11.1,4.1,18.18,0,2.73-.37,6.28-1.11,10.63-.74,4.36-1.76,9.02-3.05,13.97-1.3,4.96-2.88,10.17-4.72,15.67-1.85,5.49-3.89,10.91-6.11,16.23-2.22,5.33-4.62,10.45-7.22,15.34-2.59,4.9-5.3,9.37-8.05,13.42-8.89,13.34-19.35,24.23-31.37,32.65-12.03,8.42-26.23,12.64-42.57,12.64-7.04,0-13.82-.79-20.29-2.36-6.48-1.57-12.31-3.98-17.5-7.22-5.19-3.23-9.3-7.35-12.36-12.36-3.06-5-4.59-10.91-4.59-17.77,0-3.32,.37-6.85,1.11-10.63,.74-3.77,1.71-7.5,2.92-11.19h-.83l-17.22,82.07h-35.55l45.96-219.9h35.55Zm-13.31,147.03c0,1.85,.51,3.52,1.53,4.99,1.02,1.48,2.36,2.73,4.16,3.75,1.8,1.03,3.82,1.83,6.11,2.36,2.27,.56,4.53,.83,6.8,.83,5.55,0,10.72-1.39,15.45-4.16,4.72-2.77,8.79-6.37,12.22-10.82,3.43-4.45,6.2-9.51,8.33-15.17,2.12-5.67,3.52-11.47,4.16-17.36,.65-3.32,.99-6.48,.99-9.35,0-5.22-1.5-9.46-4.44-12.73-2.96-3.25-7.46-4.9-13.47-4.9-3.71,0-7.37,.65-11.08,1.94-3.71,1.3-7.22,3.15-10.54,5.55-3.33,2.41-6.33,5.35-9.02,8.88-2.69,3.52-4.9,7.5-6.66,11.94-1.11,3.34-2.1,6.85-2.92,10.54-.83,3.71-1.25,7.13-1.25,10.26,0,3.71,.19,6.39,.55,8.05,.37,1.67,.55,3.32,.55,4.99l-.46,.42Z" style="fill:#1434cb"/>
    <path d="M776.47,110.41c.37-1.85,.65-3.66,.83-5.41,.19-1.76,.28-3.36,.28-4.85,0-2.96-.56-5.39-1.66-7.33-1.11-1.94-2.55-3.5-4.3-4.72-1.76-1.2-3.73-2.08-5.96-2.64-2.22-.55-4.44-.83-6.66-.83-3.34,0-6.39,.44-9.16,1.3-2.78,.87-5.28,2.13-7.5,3.8-2.22,1.67-4.21,3.66-5.96,5.96-1.76,2.31-3.34,4.85-4.72,7.63-.92,1.85-1.71,3.75-2.36,5.69-.65,1.94-1.25,3.8-1.8,5.55h49.96Zm-49.96,27.28c-.92,3.15-1.38,6.39-1.38,9.71,0,3.71,.69,6.87,2.08,9.44,1.39,2.59,3.27,4.72,5.69,6.39,2.41,1.67,5.13,2.87,8.18,3.61,3.06,.74,6.24,1.11,9.58,1.11,5.04,0,9.81-.65,14.34-1.94,4.54-1.3,8.55-2.91,12.08-4.85,3.52-1.94,6.48-3.98,8.88-6.11,2.4-2.13,4.07-4.07,5-5.83h33.74c-2.22,5.93-5.55,11.56-10,16.92-4.45,5.37-9.86,10.07-16.23,14.2-6.38,4.12-13.59,7.4-21.65,9.85-8.05,2.45-16.81,3.66-26.23,3.66-9.43,0-18.09-1.34-25.98-4.02-7.89-2.68-14.71-6.57-20.4-11.65-5.69-5.08-10.08-11.28-13.2-18.59-3.11-7.31-4.67-15.58-4.67-24.84,0-4.62,.56-9.3,1.66-13.97,1.11-4.67,2.59-9.16,4.44-13.47,1.85-4.3,4.07-8.37,6.66-12.22,2.59-3.84,5.5-7.26,8.74-10.26,10-9.43,21.32-16.23,33.88-20.4,12.55-4.17,24.93-6.25,37.2-6.25,8.89,0,16.94,1.2,24.15,3.61,7.22,2.41,13.36,5.88,18.45,10.4,5.08,4.54,9.07,9.95,11.94,16.23,2.87,6.29,4.3,13.36,4.3,21.23,0,4.99-.6,10.17-1.8,15.45-1.2,5.28-2.73,10.31-4.58,15.06h-96.87Z" style="fill:#1434cb"/>
  </g>
</svg> 