<svg width="60" height="40" viewBox="0 0 60 40" fill="none" xmlns="http://www.w3.org/2000/svg">
  <rect width="60" height="40" rx="4" fill="white"/>
  <path d="M53 25.1538H50.2308L48.7692 21.8846H43.1923L41.7308 25.1538H39L44.5769 13.6923H47.3846L53 25.1538ZM47.7692 19.6923L45.9615 15.6538L44.1923 19.6923H47.7692Z" fill="#006FCF"/>
  <path d="M38.0769 25.1538H30.4615V13.6923H38.0769V16.0385H33.1923V18.0769H37.9615V20.3846H33.1923V22.8077H38.0769V25.1538Z" fill="#006FCF"/>
  <path d="M28.9231 16.8462H24.8462V25.1538H22.1154V16.8462H18V13.6923H28.9231V16.8462Z" fill="#006FCF"/>
  <path d="M20.0769 21.4615L16.7308 16.8846L13.4231 21.4615V13.6923H10.6923V25.1538H13.2692L16.7308 20.4231L20.1538 25.1538H22.7692V13.6923H20.0769V21.4615Z" fill="#006FCF"/>
  <path d="M7 18.4615H11.5385L13 15.1923H15.7692L7 27.0385V25.1538L7 18.4615Z" fill="#006FCF"/>
</svg> 