<svg width="60" height="40" viewBox="0 0 60 40" fill="none" xmlns="http://www.w3.org/2000/svg">
  <rect width="60" height="40" rx="4" fill="white"/>
  <path d="M37.7711 13.1279H22.2289V27.8721H37.7711V13.1279Z" fill="#FF5F00"/>
  <path d="M23.2918 20.5C23.2918 17.427 24.6793 14.7082 26.8566 13.1279C25.1754 11.8754 23.0668 11.0984 20.7705 11.0984C15.1082 11.0984 10.5 15.2967 10.5 20.5C10.5 25.7033 15.1082 29.9016 20.7705 29.9016C23.0668 29.9016 25.1754 29.1246 26.8566 27.8721C24.6793 26.2918 23.2918 23.573 23.2918 20.5Z" fill="#EB001B"/>
  <path d="M49.5 20.5C49.5 25.7033 44.8918 29.9016 39.2295 29.9016C36.9332 29.9016 34.8246 29.1246 33.1434 27.8721C35.3207 26.2918 36.7082 23.573 36.7082 20.5C36.7082 17.427 35.3207 14.7082 33.1434 13.1279C34.8246 11.8754 36.9332 11.0984 39.2295 11.0984C44.8918 11.0984 49.5 15.2967 49.5 20.5Z" fill="#F79E1B"/>
</svg> 