<svg width="60" height="40" viewBox="0 0 60 40" fill="none" xmlns="http://www.w3.org/2000/svg">
  <rect width="60" height="40" rx="4" fill="white"/>
  <path d="M41.0714 15.1786C41.2857 13.8929 41.0714 13 40.2143 12.1429C39.2857 11.2143 37.6429 10.7857 35.5714 10.7857H27.7857C27.3571 10.7857 27 11.1429 26.9286 11.5714L23.5 31.2857C23.5 31.6429 23.7143 31.9286 24.0714 31.9286H28.7143L28.3571 34.2857C28.2857 34.5714 28.5 34.8571 28.7857 34.8571H32.7143C33.0714 34.8571 33.4286 34.5714 33.5 34.2143V34.0714L34.5 27.7857V27.6429C34.5714 27.2857 34.9286 27 35.2857 27H35.9286C40 27 43.1429 25.3571 44.2143 20.5C44.6429 18.5 44.4286 16.7857 43.3571 15.5714C42.7143 15.2857 42 15.1786 41.0714 15.1786Z" fill="#27346A"/>
  <path d="M41.0714 15.1786C41.2857 13.8929 41.0714 13 40.2143 12.1429C39.2857 11.2143 37.6429 10.7857 35.5714 10.7857H27.7857C27.3571 10.7857 27 11.1429 26.9286 11.5714L23.5 31.2857C23.5 31.6429 23.7143 31.9286 24.0714 31.9286H28.7143L29.7857 25.5V25.7857C29.8571 25.3571 30.2143 25 30.6429 25H32.4286C37 25 40.5 23.1429 41.7143 17.7143C41.7143 17.6429 41.7143 17.5714 41.7857 17.5C42.0714 16.6429 41.9286 16.2143 41.9286 16C41.5714 15.7143 41.3571 15.5 41.0714 15.1786Z" fill="#27346A"/>
  <path d="M30.0714 15.2857C30.2857 15.2857 30.5 15.2857 30.7143 15.3571C31.9286 15.7143 32.4286 16.7143 32.2143 18.0714C31.6429 20.4286 29.8571 21.4286 27.5714 21.4286H26.2143C25.7857 21.4286 25.4286 21.7857 25.3571 22.2143L24.6429 26.1429L24.3571 27.7857C24.2857 28.0714 24.5 28.3571 24.7857 28.3571H27.5C27.8571 28.3571 28.2143 28.0714 28.2857 27.7143V27.5714L28.9286 23.5714V23.4286C29 23.0714 29.3571 22.7857 29.7143 22.7857H30.1429C33.2143 22.7857 35.6429 21.6429 36.2857 18.0714C36.5714 16.5714 36.3571 15.3571 35.5 14.5C35.2143 14.7857 34.5 15.0714 33.6429 15.2143C32.5 15.3571 31.2857 15.2857 30.0714 15.2857Z" fill="#2790C3"/>
  <path d="M29.4286 15.0714C29.5 15.0714 29.5714 15.0714 29.6429 15.0714C29.7857 15.0714 29.9286 15.0714 30.0714 15.0714C31.2857 15.0714 32.5 15.1429 33.5714 15C33.9286 15 34.2857 14.9286 34.6429 14.8571C34.7857 14.8571 34.9286 14.7857 35.0714 14.7857C35.3571 14.7143 35.6429 14.6429 35.9286 14.5C36.3571 12.5714 35.9286 11.2857 35 10.3571C33.9286 9.35714 32.1429 9 29.9286 9H21.4286C21 9 20.5714 9.35714 20.5 9.78571L16.7857 31.0714C16.7143 31.5 17 31.8571 17.3571 31.8571H22.5714L23.7857 24.2857L24.5714 20.2143C24.6429 19.7857 25 19.4286 25.4286 19.4286H27.5714C29.8571 19.4286 31.6429 18.4286 32.2143 16.0714C32.3571 15.7143 32.3571 15.4286 32.4286 15.2143C32.1429 15.1429 31.9286 15.1429 31.6429 15.0714C31 15.0714 30.2143 15.0714 29.4286 15.0714Z" fill="#1F264F"/>
</svg> 