<svg width="60" height="40" viewBox="0 0 60 40" fill="none" xmlns="http://www.w3.org/2000/svg">
  <rect width="60" height="40" rx="4" fill="white"/>
  <path d="M24.0451 14.6917L19.5466 25.5321H16.5425L14.3246 16.7836C14.1952 16.2659 14.0856 16.0632 13.7275 15.8603C13.1304 15.5159 12.1351 15.1919 11.25 15.0089L11.3199 14.6917H16.4927C17.0697 14.6917 17.5872 15.0684 17.7167 15.6882L18.9507 22.2374L21.6916 14.6917H24.0451ZM34.743 21.1032C34.7529 18.8118 31.5096 18.6681 31.5294 17.4449C31.5395 17.0509 31.9473 16.6272 32.8036 16.5181C33.235 16.4584 34.4095 16.4137 35.7528 16.9761L36.2604 14.9326C35.5738 14.6676 34.67 14.4102 33.5451 14.4102C31.3174 14.4102 29.734 15.5954 29.7141 17.3507C29.6941 18.642 30.8589 19.3563 31.7351 19.7949C32.641 20.2433 32.9396 20.5283 32.9297 20.9174C32.9196 21.5124 32.1935 21.7846 31.5196 21.7945C30.3845 21.8092 29.7342 21.5025 29.2167 21.2724L28.6895 23.3753C29.2069 23.6029 30.1624 23.7969 31.1576 23.8066C33.5308 23.8066 35.0944 22.64 35.104 20.7954L34.743 21.1032ZM41.5363 25.5321H44.0089L41.3574 14.6917H39.3372C38.8494 14.6917 38.4319 14.9865 38.2528 15.4301L33.9174 25.5321H36.2709L36.8777 23.9255H40.9886L41.5363 25.5321ZM37.5744 21.8689L39.2772 17.3901L40.2427 21.8689H37.5744ZM29.0778 14.6917L27.1074 25.5321H24.9193L26.8897 14.6917H29.0778Z" fill="#172B85"/>
  <path d="M45.9693 14.6918L44 25.5321H46.1288L48.098 14.6918H45.9693Z" fill="#172B85"/>
</svg> 